<?xml version="1.0" encoding="UTF-8"?>
<svg width="209px" height="31px" viewBox="0 0 209 31" version="1.1" xmlns="http://www.w3.org/2000/svg" xmlns:xlink="http://www.w3.org/1999/xlink">
    <!-- Generator: Sketch 46.2 (44496) - http://www.bohemiancoding.com/sketch -->
    <title>logo_randstad_blanco</title>
    <desc>Created with Sketch.</desc>
    <defs></defs>
    <g id="Symbols" stroke="none" stroke-width="1" fill="none" fill-rule="evenodd">
        <g id="header/home" transform="translate(-391.000000, -27.000000)" fill-rule="nonzero" fill="#FFFFFF">
            <g id="header-home">
                <g id="level2" transform="translate(390.000000, 27.000000)">
                    <g id="logo">
                        <g id="Bitmap">
                            <g id="logo_randstad_blanco" transform="translate(1.000000, -1.000000)">
                                <path d="M205.173574,28.5567836 C203.695904,30.5980914 201.646915,31.6169515 199.231153,31.9111294 C197.602181,32.1458176 195.941148,31.9134832 194.434896,31.2402602 C192.400013,30.3039134 191.059883,28.6751723 190.202904,26.6338645 C189.230699,24.2706129 188.838533,21.7021618 189.060267,19.1502652 C189.147614,17.4598944 189.577452,15.8061302 190.322811,14.2927419 C191.909807,11.1679984 194.456056,9.60383287 197.898076,9.52131955 C199.219266,9.46237137 200.538598,9.67466806 201.777401,10.1455508 C203.042677,10.6386838 204.128491,11.5153167 204.887915,12.6568257 L205.141834,13.0155793 L205.141834,0 L209,0 L209,31.4160495 L205.293481,31.4160495 L205.293481,28.6177717 L205.293481,28.4957955 L205.194734,28.5531961 M205.141834,20.8148817 C205.092461,18.8453246 204.789168,17.4354231 204.083836,16.0506344 C202.764866,13.4998966 200.655923,12.3482976 197.845176,12.8218523 C196.021893,13.1160303 194.833408,14.3035045 194.06107,15.9501834 C193.288731,17.5968622 193.094765,19.4552057 193.172352,21.3027866 C193.21295,22.9038335 193.637919,24.4704757 194.410209,25.8661319 C195.584587,27.9217898 197.266803,29.0446884 199.700199,28.7648607 C201.109721,28.6170954 202.39823,27.8884684 203.265651,26.7486656 C204.644575,24.9979482 205.124201,22.9422903 205.159468,20.8292318" id="Shape"></path>
                                <path d="M134.119945,12.8642279 L134.119945,0 L138,0 L138,31.4307481 L134.306894,31.4307481 L134.306894,28.5186341 L134.194019,28.4361481 C134.179595,28.5014831 134.155827,28.5643148 134.123473,28.6226382 C132.848736,30.3623111 130.944554,31.5136128 128.832489,31.82166 C127.078046,32.1777523 125.259198,31.9980648 123.604998,31.305226 C121.460386,30.376362 120.077675,28.6943651 119.174681,26.5640748 C118.251472,24.2958989 117.863689,21.8393753 118.04241,19.3913801 C118.106046,17.3106951 118.697804,15.2820993 119.760216,13.5025978 C121.368675,10.9024959 123.735508,9.63292897 126.726678,9.5217522 C128.111512,9.43804956 129.498215,9.65063532 130.797208,10.1457766 C132.036684,10.6310146 133.102778,11.4861596 133.855396,12.5988382 C133.918888,12.6884969 133.98238,12.7781556 134.049399,12.8678143 L134.119945,12.8462962 M122.127049,21.0948951 C122.13196,22.8824488 122.62005,24.6342371 123.537978,26.1588175 C125.005345,28.5652566 127.552071,29.436739 130.070579,28.3751802 C131.657874,27.7045332 132.634943,26.4349663 133.298079,24.8784915 C133.895187,23.4028153 134.156838,21.8090947 134.063508,20.21624 C134.038066,18.5082132 133.549862,16.8403978 132.652579,15.3961892 C131.34747,13.3483848 129.449771,12.5020068 127.093519,12.7638102 C125.546898,12.9297117 124.173527,13.8428142 123.40394,15.2168718 C122.402181,16.8558325 122.123522,18.677697 122.11294,21.1056541" id="Shape"></path>
                                <path d="M90.3598062,28.8962852 C89.0604644,30.6064297 87.0868192,31.7001332 84.923344,31.9089227 C82.9943256,32.1651493 81.0308184,31.8781004 79.2617028,31.0812365 C77.3959347,30.197436 76.4022881,28.6893636 76.0984753,26.7078267 C75.8482765,25.0138757 76.0377127,23.3900676 77.0992704,21.9521381 C77.8660378,20.9551725 78.886726,20.1737933 80.0587647,19.6865225 C81.3863851,19.1185367 82.7983042,18.7633049 84.2406587,18.634379 C86.0528128,18.4449931 87.8542441,18.5642361 89.6628239,18.5852789 L90.1239045,18.5852789 C90.023825,17.8207213 89.9880823,17.087728 89.8272402,16.3898062 C89.3911795,14.5310193 88.1937996,13.4788759 86.2529718,13.2333757 C83.5789537,12.8493557 80.8621593,13.5678453 78.7470082,15.2184198 C78.7114434,15.2366415 78.6743785,15.251893 78.6362059,15.2640127 C78.6076117,14.836141 78.5754433,14.425805 78.5504234,14.0189762 C78.5146807,13.4262687 78.4896608,12.8370683 78.4396211,12.2443608 C78.4075768,12.0633276 78.5088983,11.8849588 78.6826713,11.8164891 C80.2799792,10.9030747 82.051136,10.3205934 83.8868061,10.1050024 C85.5116681,9.90154927 87.160851,9.99429029 88.7513854,10.3785597 C91.4106411,11.0554387 93.0405075,12.7423754 93.6266875,15.3516913 C93.847753,16.2835752 93.9675641,17.2358202 93.9841144,18.1924787 C94.019857,22.4992527 93.9841144,26.8095339 93.9841144,31.116308 L93.9841144,31.4354581 L90.4777571,31.4354581 L90.4777571,28.9032995 C90.4777571,28.8787495 90.4527372,28.8577066 90.4455886,28.8296494 L90.3562319,28.8962852 M90.0702905,21.4471092 C89.6699724,21.4471092 89.3232684,21.4471092 88.9729901,21.4471092 C87.2787868,21.3769663 85.5774351,21.3524163 83.9261231,21.7978237 C83.1645111,21.9868612 82.4349006,22.2833845 81.7601164,22.6781171 C79.5047531,24.0809751 79.6798922,27.1146555 82.0532064,28.3386491 C83.1103618,28.8719531 84.3250058,29.0234153 85.4845041,28.7665208 C87.6290651,28.359692 89.1302579,27.2549413 89.7950718,25.1716972 C90.1775185,23.9722536 90.0488449,22.7377386 90.0702905,21.4436021" id="Shape"></path>
                                <path d="M183.093527,18.5094059 C183.047107,17.0349731 182.936411,15.5500086 181.797321,14.3774834 C180.997458,13.5560137 179.947638,13.2541061 178.844256,13.1698528 C176.762309,12.9729112 174.670283,13.427503 172.86671,14.4687579 C172.463208,14.703965 172.084701,14.9812988 171.663345,15.2621431 C171.595499,14.2089768 171.520512,13.1558105 171.477662,12.1412603 C171.477662,12.0324332 171.620495,11.8744582 171.738332,11.8077577 C173.984481,10.5199885 176.561018,9.89708625 179.158488,10.0138644 C180.285622,10.0409564 181.4024,10.232621 182.472205,10.5825742 C184.728961,11.3654278 186.064446,12.9662406 186.617923,15.2129954 C186.794354,15.902225 186.891376,16.6087768 186.907159,17.319328 C186.960721,21.9708125 186.975004,26.6187864 187,31.2702709 C187,31.3123975 187,31.3580347 187,31.4317564 L183.5006,31.4317564 L183.5006,28.8725623 L183.429184,28.8374567 C183.361338,28.9146889 183.289922,28.9919211 183.225647,29.0726639 C181.735498,30.9133957 179.473213,31.9860328 177.080273,31.9864239 C175.605661,32.0604881 174.131571,31.8309099 172.752444,31.3123975 C170.588529,30.4523117 169.395877,28.8550095 169.081645,26.5942125 C168.853112,24.9618047 169.081645,23.4101397 170.056478,22.0304919 C170.98489,20.7315868 172.29895,19.9452226 173.780839,19.3940656 C175.360378,18.8225165 177.029032,18.5255408 178.712136,18.516427 C180.140462,18.4953637 181.568789,18.516427 183.079244,18.516427 M183.161373,21.5600776 C182.618609,21.5179509 182.197252,21.4477399 181.775896,21.4582715 C180.529681,21.4828454 179.276325,21.4828454 178.033681,21.6022042 C176.778876,21.6902985 175.573031,22.1166395 174.548564,22.8344088 C173.729326,23.3977382 173.229956,24.3093032 173.202367,25.2917968 C173.143568,26.481524 173.770356,27.6026468 174.823517,28.1915147 C175.969749,28.8936256 177.205251,28.9919211 178.522883,28.7707562 C180.722505,28.4197008 182.397218,27.015479 182.857853,24.8845725 C183.093527,23.8103429 183.064961,22.6729233 183.161373,21.5460354" id="Shape"></path>
                                <path d="M100.910342,13.6288612 C102.202957,11.4480391 104.271864,10.4159205 106.792103,10.0935978 C108.367729,9.87427824 109.976247,10.0419102 111.464294,10.5805109 C113.630689,11.3726019 114.861923,12.9430681 115.497398,14.9970184 C115.843485,16.1556299 116.012506,17.355451 115.99928,18.5597134 C115.99928,22.6150365 115.99928,26.6703597 115.99928,30.7256828 C115.99928,30.80112 115.99928,30.8799862 115.99928,30.9828552 L112.049221,30.9828552 L112.049221,30.6399586 C112.049221,27.0189711 112.049221,23.3979837 112.027557,19.7769962 C112.056594,18.474126 111.871428,17.1749289 111.478737,15.926268 C110.919085,14.3180832 109.79617,13.2996805 108.001673,13.1282322 C105.474213,12.8882046 103.347536,13.8140253 102.091027,16.0908583 C101.413529,17.3067577 101.042717,18.6554999 101.00783,20.0307396 C100.932006,23.1510981 100.942838,26.2714567 100.924785,29.3883862 C100.924785,29.9198759 100.924785,30.4547945 100.924785,31 L97,31 L97,10.5427923 L100.802022,10.5427923 L100.802022,13.6288612 C100.812291,13.6522443 100.820739,13.6763118 100.827297,13.7008694 L100.910342,13.6288612" id="Shape"></path>
                                <path d="M167.981752,28.1649166 L167.981752,31.4346862 C167.30292,31.580881 166.624088,31.7591672 165.930657,31.8697047 C164.511244,32.1106313 163.053442,32.0164941 161.678832,31.5951439 C159.489051,30.9176562 158.306569,29.3879602 157.970803,27.202171 C157.908608,26.7543535 157.88055,26.3026405 157.886861,25.8507613 C157.886861,21.8310009 157.886861,17.8112405 157.886861,13.7914802 L157.886861,13.352896 L153,13.352896 L153,10.1615724 L157.886861,10.1615724 L157.886861,9.7622112 C157.886861,8.36088137 157.886861,6.95955154 157.886861,5.55465599 C157.871087,5.46099433 157.894188,5.36505351 157.951046,5.2880853 C158.007904,5.2111171 158.093827,5.1594748 158.189781,5.14459765 C159.408759,4.78802517 160.620438,4.39222972 161.883212,4 L161.883212,10.1544409 L167.627737,10.1544409 L167.627737,13.327936 L161.89781,13.327936 C161.89781,13.4705649 161.89781,13.5811024 161.89781,13.6845084 C161.89781,17.4879482 161.89781,21.2913879 161.89781,25.0948276 C161.85104,26.0551113 162.173935,26.9977097 162.80292,27.7370297 C163.621847,28.6959363 164.943913,29.0905745 166.171533,28.7425641 C166.747523,28.5760459 167.31402,28.3796524 167.868613,28.1542195 L168,28.1542195" id="Shape"></path>
                                <path d="M152.956476,10.8461837 C152.837263,11.9718418 152.721776,13.0659394 152.602564,14.184584 C151.487614,13.6778577 150.292127,13.346186 149.06344,13.2027016 C148.066884,13.0495898 147.045027,13.1475924 146.101753,13.4867462 C144.153373,14.2406916 143.769657,16.3236851 145.356675,17.6562398 C146.122395,18.2303998 146.96858,18.7024098 147.871315,19.0589291 C148.955404,19.5568837 150.05812,20.0302913 151.097505,20.6089006 C152.464724,21.3698595 153.500383,22.4429168 153.820767,23.9543144 C154.565846,27.4610374 152.982554,30.5083797 149.171477,31.542863 C146.30485,32.3028481 143.247681,32.1109175 140.513664,30.999321 C140.256603,30.9483318 140.090677,30.7124896 140.141125,30.4698058 C140.223083,29.4493494 140.275239,28.4323997 140.334845,27.4435038 C141.109323,27.7880182 141.902709,28.0935342 142.711646,28.3587585 C143.594373,28.6235752 144.507181,28.7895359 145.431182,28.8532065 C146.364121,28.8921697 147.290553,28.6896206 148.10974,28.2675837 C148.936293,27.8675278 149.493057,27.1023639 149.590666,26.232338 C149.688274,25.3623121 149.313587,24.504556 148.594041,23.9508077 C147.599361,23.1828353 146.437039,22.7024143 145.300794,22.1658857 C144.03416,21.5697427 142.771252,20.9771065 141.709515,20.0618518 C140.293866,18.8450189 139.846819,17.3266079 140.044265,15.5802598 C140.416804,12.4768099 142.652039,10.6708476 145.848426,10.1623727 C148.266206,9.76611302 150.613204,10.1343189 152.956476,10.842677" id="Shape"></path>
                                <path d="M44,11.0177683 L44,15.7043157 L31.2159382,15.7043157 C30.2750552,15.6851175 29.3667806,16.048781 28.6996797,16.7117991 C28.0325788,17.3748171 27.6639707,18.2802211 27.6784981,19.2201052 L27.6784981,32 L23.0006297,32 L23.0006297,31.6202947 C23.0006297,27.8584 23.0006297,24.0988491 23.0006297,20.3416421 C22.9851053,19.6607832 23.2572363,19.0048473 23.7503558,18.5345263 C25.9936677,16.2937964 28.2322864,14.0554105 30.4662121,11.8193683 C30.9659565,11.2885598 31.6656504,10.9914047 32.3950848,11.0001894 L43.8908849,11.0001894 C43.9155238,11.0001894 43.9366429,11.0001894 44,11.0212841" id="Shape"></path>
                                <path d="M20.9919094,32 L16.3070953,32 L16.3070953,31.5048018 C16.3070953,27.4214658 16.3070953,23.3357884 16.3070953,19.2477696 C16.3305931,18.3006454 15.9633675,17.3854283 15.2913055,16.7161695 C14.6192435,16.0469107 13.7012868,15.6823061 12.7521274,15.7076296 L0,15.7076296 L0,11.0014911 L0.373095641,11.0014911 C4.05477526,11.0014911 7.73997466,11.0014911 11.425174,11.0014911 C12.2328748,10.9753739 13.0135715,11.2933522 13.5722339,11.87599 C15.7720902,14.1026256 17.9930652,16.3117011 20.21756,18.5137524 C20.7356632,19.0082826 21.0195807,19.6986527 20.998949,20.413768 C20.998949,24.1341929 20.998949,27.8546178 20.998949,31.5750427 L20.9919094,32 Z" id="Shape"></path>
                                <path d="M77,10.250241 L77,13.6115297 L76.6174436,13.5150993 C74.592782,13.046723 72.7233083,13.2395838 71.2039098,14.7549189 C70.2586667,15.7104663 69.6232103,16.9065022 69.3741353,18.1988623 C69.1361415,19.2803805 68.9984663,20.3798053 68.9627068,21.4843844 C68.9085714,24.5184985 68.9410526,27.5526126 68.9410526,30.5832828 L68.9410526,31 L65,31 L65,10.4603215 L68.6523308,10.4603215 L68.6523308,13.5598706 L68.7497744,13.5839782 C68.8003008,13.4944357 68.8508271,13.4048931 68.9049624,13.3187945 C69.9010526,11.645038 71.3266165,10.4775412 73.3296241,10.0711559 C73.8793199,9.99489516 74.4364425,9.97987057 74.9897744,10.0263846 C75.5275188,10.0263846 76.0724812,10.1090393 76.5957895,10.1606984 C76.7262858,10.1800669 76.8552912,10.2076791 76.9819549,10.2433531" id="Shape"></path>
                                <path d="M205.02,29.08 L205.155,29 C205.155,29.055 205.155,29.11 205.155,29.17 L205,29.08" id="Shape"></path>
                                <path d="M101.14,14 L101.035,14.11 C101.025918,14.0741908 101.01422,14.0390966 101,14.005 L101.15,14.005" id="Shape"></path>
                                <polyline id="Shape" points="168.18 28 168 28 168.18 28"></polyline>
                                <path d="M90.005,29.09 L90.125,29 C90.125,29.035 90.16,29.065 90.175,29.105 L90,29.105" id="Shape"></path>
                            </g>
                        </g>
                    </g>
                </g>
            </g>
        </g>
    </g>
</svg>